<mxfile host="65bd71144e" modified="2020-10-25T10:27:19.724Z" agent="5.0 (Macintosh; Intel Mac OS X 10_15_7) AppleWebKit/537.36 (KHTML, like Gecko) Code-Insiders/1.51.0-insider Chrome/83.0.4103.122 Electron/9.3.2 Safari/537.36" version="13.6.5" etag="EmQqw1fgrEaUTBGkzyo3" pages="2">
    <diagram id="QFvwghJYqsZYx2voRDlF" name="before">
        <mxGraphModel dx="824" dy="503" grid="1" gridSize="10" guides="1" tooltips="1" connect="1" arrows="1" fold="1" page="1" pageScale="1" pageWidth="827" pageHeight="1169" math="0" shadow="0">
            <root>
                <mxCell id="0"/>
                <mxCell id="1" parent="0"/>
                <mxCell id="JXJ_nkNwmDkzXkuRJGk0-1" value="" style="shape=actor;whiteSpace=wrap;html=1;" vertex="1" parent="1">
                    <mxGeometry x="150" y="220" width="40" height="60" as="geometry"/>
                </mxCell>
            </root>
        </mxGraphModel>
    </diagram>
    <diagram id="BJtCvcEbnfrvaDq1bQRi" name="after">
        <mxGraphModel dx="824" dy="503" grid="1" gridSize="10" guides="1" tooltips="1" connect="1" arrows="1" fold="1" page="1" pageScale="1" pageWidth="827" pageHeight="1169" math="0" shadow="0">
            <root>
                <mxCell id="9h9iCyoGpsFcn2xESWjf-0"/>
                <mxCell id="9h9iCyoGpsFcn2xESWjf-1" parent="9h9iCyoGpsFcn2xESWjf-0"/>
            </root>
        </mxGraphModel>
    </diagram>
</mxfile>